P2
#Figura modificada...
100 56
255
102 101 98 96 94 92 90 89 88 87 85 86 84 84 83 83 83 84 86 88 88 88 88 88 89 89 89 88 88 89 88 88 90 92 95 99 104 104 104 105 110 124 134 136 137 127 122 121 133 133 138 132 136 140 128 123 117 115 112 110 108 107 107 107 111 116 128 156 168 167 160 156 143 133 124 120 119 113 113 114 115 112 106 104 107 108 109 109 105 104 106 108 111 118 125 127 134 129 125 112 
105 102 98 97 96 93 91 89 87 87 85 85 85 85 83 83 83 82 84 84 85 85 86 86 88 88 88 87 88 88 88 88 90 92 96 100 105 108 108 108 113 124 137 140 144 132 130 121 126 124 132 136 138 139 127 113 111 112 111 108 108 107 108 109 111 121 139 163 168 164 165 160 144 132 125 123 121 118 117 118 118 112 112 114 113 110 111 110 109 109 110 113 115 122 126 134 128 115 109 103 
108 104 100 97 96 93 92 91 89 88 86 86 85 85 84 82 81 81 82 83 83 83 84 84 84 84 84 86 86 87 88 90 90 92 98 103 109 115 117 118 122 132 140 142 144 139 129 118 121 120 120 130 130 125 115 111 112 113 112 111 109 110 111 111 116 131 161 169 166 164 164 159 146 136 133 130 128 126 123 118 114 113 116 116 112 112 112 112 112 112 114 116 116 116 119 120 112 104 100 102 
108 108 104 100 98 96 94 92 90 89 87 86 85 85 84 83 81 81 82 82 82 82 82 82 82 82 84 85 86 86 87 90 91 94 99 106 116 123 129 124 134 136 132 134 124 117 117 117 124 126 116 112 115 112 113 113 114 121 118 123 116 114 115 121 123 140 166 172 170 169 164 152 146 148 144 136 127 127 123 118 114 112 113 111 111 116 114 116 117 119 121 116 116 117 114 107 102 101 103 101 
108 108 106 104 102 98 95 94 92 91 89 88 86 86 85 84 83 82 81 81 81 81 82 82 82 83 86 87 86 86 87 89 91 95 102 112 123 124 128 133 137 132 126 124 120 117 120 125 126 127 120 109 110 116 119 121 129 126 119 121 121 120 125 133 135 141 164 170 172 166 162 154 157 161 151 120 112 112 110 109 108 106 108 108 109 110 112 115 116 116 114 112 112 110 106 103 104 107 107 102 
112 115 114 111 108 104 100 97 96 95 92 91 89 87 85 84 84 83 83 81 80 80 81 82 84 84 85 86 85 85 86 89 93 99 108 123 129 128 128 133 136 140 124 120 120 122 126 132 128 131 132 118 119 124 125 124 128 126 119 116 117 127 135 136 143 148 160 174 175 168 159 157 149 146 126 111 108 104 103 102 100 100 103 105 106 108 108 110 112 111 109 107 107 106 104 105 111 109 108 104 
130 128 127 122 123 120 113 108 105 103 100 96 93 91 89 88 86 85 84 83 82 81 82 81 81 81 82 84 84 84 85 88 94 100 109 120 128 128 132 134 142 138 131 131 128 131 134 127 125 137 144 132 122 121 122 124 120 118 112 112 121 137 140 154 155 154 177 184 176 175 144 124 118 116 114 108 108 103 99 96 95 96 100 102 105 106 108 108 107 108 106 107 107 105 103 104 105 103 102 100 
146 144 142 140 142 140 134 126 121 118 114 109 101 96 93 92 90 88 87 85 84 83 82 80 80 79 80 82 82 83 85 87 92 100 110 112 119 123 132 141 137 136 137 138 137 140 145 131 127 139 155 143 125 118 116 120 114 110 108 108 115 125 144 154 155 160 165 145 128 134 117 113 109 109 104 106 104 98 94 92 92 94 98 102 104 107 108 106 105 107 109 108 108 104 102 101 100 98 97 94 
160 159 156 156 160 158 152 144 136 130 122 120 112 107 104 100 98 95 92 88 87 85 83 82 81 80 80 82 82 83 84 87 92 100 109 112 115 118 129 141 141 145 148 148 148 149 140 128 125 129 135 132 124 116 112 117 116 108 107 108 109 124 136 145 152 156 132 119 116 116 110 107 104 104 100 102 102 96 92 92 92 94 96 98 101 103 100 104 104 104 107 105 102 100 100 98 97 94 91 90 
168 168 166 167 168 168 169 162 148 136 132 131 126 124 120 117 113 109 102 96 92 90 88 86 84 82 82 82 84 85 86 88 92 100 108 110 111 116 123 140 152 157 153 150 144 140 132 127 122 124 128 128 120 114 112 112 109 104 104 112 116 124 135 139 162 149 119 114 112 109 107 104 104 103 102 101 100 96 93 92 92 92 95 95 98 98 96 100 102 104 103 103 100 100 97 95 93 91 88 86 
162 168 171 172 172 172 172 169 156 147 145 146 148 151 144 141 137 130 124 111 104 100 96 92 88 86 86 86 87 88 88 91 96 100 105 107 109 112 116 127 148 152 142 130 128 128 127 124 121 124 133 129 120 116 113 109 106 103 106 116 125 128 135 144 134 124 114 111 107 105 104 103 103 102 101 100 99 96 95 93 93 95 95 96 100 100 98 100 102 103 102 102 101 99 95 91 89 87 84 84 
124 128 140 168 172 172 168 157 153 150 145 150 167 171 156 154 154 147 145 128 121 118 113 105 99 95 93 92 92 93 96 96 100 102 104 105 107 108 112 120 134 129 124 120 117 117 122 120 120 122 129 129 124 121 116 112 108 107 109 115 116 115 117 117 115 112 110 107 102 101 100 99 100 99 99 98 97 95 94 92 93 93 94 96 98 99 98 99 102 101 101 100 100 97 94 90 87 83 82 81 
111 112 119 136 162 159 132 123 118 116 116 118 120 128 136 151 167 168 164 156 144 136 131 126 116 112 108 107 105 103 103 105 109 108 107 106 104 107 112 117 121 120 120 116 115 113 115 115 113 115 124 126 124 120 116 112 109 111 113 112 112 113 113 111 110 108 106 102 100 97 97 96 97 99 99 97 96 95 92 92 91 90 92 94 96 96 97 101 104 105 103 100 97 95 91 90 88 85 84 81 
110 115 123 139 160 155 136 124 114 109 109 111 117 128 143 155 168 173 178 180 169 156 146 149 147 138 132 129 125 118 115 118 121 118 116 110 108 108 111 114 117 118 116 112 112 112 113 115 114 113 117 120 122 120 116 112 112 112 112 109 110 109 108 108 106 104 103 100 99 97 98 98 99 100 99 96 95 94 92 90 89 88 88 90 92 95 100 105 104 104 101 99 96 93 91 89 88 88 86 82 
132 132 136 146 136 136 145 132 115 116 124 127 141 160 179 179 180 181 178 183 186 183 170 166 174 172 162 159 149 136 131 133 130 121 120 115 112 112 112 112 113 114 113 112 113 113 113 114 110 109 115 120 121 119 116 116 113 111 111 108 106 105 104 105 104 103 102 101 101 101 100 98 97 95 96 96 94 93 90 88 88 87 88 89 92 97 100 100 100 100 99 96 92 91 90 88 87 87 85 82 
142 151 143 147 131 124 122 120 127 131 141 137 152 175 180 182 180 176 179 176 187 184 183 180 166 174 182 180 184 168 164 160 144 124 116 115 113 113 113 113 113 112 112 112 112 112 111 111 110 112 112 115 116 112 112 113 112 110 109 108 105 104 104 104 104 104 102 101 98 98 97 96 94 95 94 93 92 90 91 91 89 89 91 92 96 100 99 98 98 97 95 92 91 88 87 84 84 84 83 80 
157 172 161 145 135 125 116 118 132 131 141 150 136 156 166 175 183 174 164 169 172 164 143 132 119 128 152 152 149 144 157 187 166 127 115 109 105 109 112 112 113 115 112 107 110 112 111 109 109 108 108 110 112 108 106 108 108 107 108 108 107 104 104 104 104 104 100 96 95 93 93 96 96 94 93 93 94 94 94 93 92 90 91 94 99 99 96 97 95 95 93 91 88 84 82 82 81 80 80 77 
173 196 179 170 149 131 116 119 137 148 146 143 133 164 153 144 140 152 156 159 156 140 123 118 119 123 153 151 138 132 136 152 149 132 117 112 104 102 102 103 106 108 107 104 104 108 108 108 107 107 106 108 108 104 100 100 101 102 101 102 104 104 104 104 102 101 98 96 94 92 92 96 96 94 94 96 96 96 95 92 91 90 92 95 99 98 96 93 92 92 92 89 84 81 80 80 78 77 76 75 
158 172 182 178 166 143 114 117 157 177 175 163 147 157 146 148 131 131 148 160 140 128 119 119 120 120 124 128 127 125 125 131 131 131 122 116 106 100 97 97 99 101 103 102 102 102 103 104 100 98 98 100 102 100 98 96 95 93 93 96 98 100 100 102 102 102 99 97 94 92 92 93 93 93 96 96 96 95 95 95 93 92 94 96 99 93 90 89 91 90 88 86 83 80 77 76 76 76 76 76 
147 161 179 184 174 148 111 115 157 198 198 184 173 164 139 144 128 121 126 135 124 116 112 109 108 109 104 107 112 116 119 120 124 125 120 116 111 105 101 100 99 100 103 102 99 99 98 99 97 95 96 96 97 98 98 96 93 91 96 98 98 98 99 104 103 101 102 102 96 95 94 93 92 94 96 94 94 96 97 98 96 95 93 99 96 92 89 89 90 89 88 85 83 82 80 80 78 78 78 79 
179 186 171 174 181 156 119 117 128 167 167 155 156 144 134 128 121 120 118 116 113 108 106 105 103 104 99 107 107 106 110 113 116 116 113 111 112 112 110 107 105 103 103 100 98 96 96 98 97 95 96 96 94 94 95 95 92 92 98 99 102 109 111 104 99 101 104 107 100 96 99 96 95 95 93 92 92 95 96 95 94 92 92 96 96 92 92 91 89 88 87 86 83 81 79 76 74 74 74 75 
180 191 198 192 184 171 152 132 131 150 173 173 158 147 140 136 133 136 136 127 111 101 103 112 114 105 99 97 100 102 102 104 108 111 108 100 100 102 105 106 105 104 104 102 100 100 101 102 102 101 100 98 94 92 95 97 96 96 100 103 111 128 137 130 108 104 107 112 112 108 108 108 104 99 92 90 90 89 89 91 90 90 90 90 91 91 91 87 86 84 85 84 80 80 76 75 75 75 76 77 
165 159 170 174 176 188 181 160 150 152 179 184 185 160 156 146 144 147 136 124 112 104 97 100 110 105 104 101 98 99 99 100 104 108 106 100 95 92 90 90 93 97 97 99 100 99 99 100 102 98 99 100 100 100 102 104 105 108 108 112 125 148 179 176 133 125 120 140 126 112 105 102 100 97 93 90 89 89 89 89 91 89 88 88 89 89 89 88 86 88 88 87 85 84 84 82 81 81 82 83 
173 170 160 160 160 165 152 143 141 145 150 167 169 168 179 181 178 156 154 155 132 108 103 102 102 102 102 100 94 92 90 90 93 95 96 96 94 89 90 89 90 88 88 90 91 90 88 88 92 92 93 95 100 103 107 114 125 126 125 128 138 162 193 192 162 144 132 128 114 104 98 92 91 90 92 93 92 92 92 92 92 89 88 88 87 87 88 88 88 88 87 85 85 84 81 80 79 78 78 78 
180 185 172 176 162 165 154 140 140 148 160 176 184 180 191 188 182 170 144 158 169 175 146 124 112 111 107 103 101 100 97 96 98 98 98 99 98 94 89 88 90 92 93 94 92 92 92 96 96 95 92 96 102 104 115 137 160 172 167 165 175 185 179 176 155 143 132 120 112 104 97 90 86 85 87 89 92 93 93 93 92 92 92 91 90 89 89 88 88 87 86 86 86 85 84 84 82 82 81 82 
153 165 178 177 178 184 169 151 147 157 168 183 177 174 180 177 188 194 176 159 167 185 198 193 183 183 164 147 149 139 136 140 153 150 137 140 132 120 108 105 119 145 158 156 121 108 125 138 143 128 131 162 176 169 175 197 202 202 202 203 202 200 188 175 169 157 140 127 117 107 99 94 94 97 95 93 92 92 92 97 103 105 102 99 96 93 93 92 90 91 94 100 100 94 94 95 97 99 100 98 
126 132 135 139 139 142 143 139 136 139 144 139 136 143 149 145 144 136 137 146 152 152 152 152 153 154 153 152 150 145 148 151 159 166 166 161 153 153 152 154 158 164 172 179 180 191 194 194 196 196 195 196 199 200 200 200 200 200 200 201 200 200 193 182 173 168 160 146 135 126 121 121 123 116 109 107 112 114 116 118 120 119 118 116 113 116 120 120 118 120 120 119 119 119 118 118 119 118 117 116 
100 102 102 104 108 109 108 109 111 113 115 112 112 115 118 118 118 120 122 124 127 128 131 134 140 140 140 140 140 140 148 154 160 165 160 154 153 151 152 153 152 153 156 158 164 168 169 167 165 168 168 168 168 172 174 174 175 174 172 174 174 174 171 168 165 161 157 152 147 143 140 136 133 130 126 127 129 131 132 130 133 137 135 133 139 135 136 139 143 139 138 140 135 131 129 129 130 130 130 125 
86 88 89 91 93 93 94 95 96 98 99 100 100 102 104 107 110 114 118 120 122 127 132 135 137 142 147 154 156 161 167 172 177 180 184 189 195 195 195 197 198 200 200 200 201 201 200 182 164 161 164 156 155 153 152 152 152 152 152 152 152 151 151 152 152 152 150 144 142 139 136 135 132 129 126 125 124 124 124 122 124 124 120 128 132 130 131 132 133 135 136 133 131 129 128 128 128 128 127 125 
84 85 87 89 92 93 94 95 95 96 96 96 97 98 100 103 104 108 111 116 121 127 132 132 132 138 145 155 164 172 176 176 176 180 184 186 188 188 186 188 189 191 194 194 195 196 192 178 152 148 148 141 137 136 137 134 136 134 134 134 135 135 135 134 134 134 132 132 131 130 129 126 126 126 125 124 124 122 121 120 118 116 116 119 119 119 120 122 124 126 125 126 126 126 125 125 124 124 124 123 
116 120 121 124 124 125 122 119 121 127 134 139 139 140 142 145 148 148 145 144 144 147 148 148 145 144 141 141 141 142 144 146 149 151 151 151 149 147 144 142 145 152 157 160 164 170 174 176 173 154 126 136 128 165 177 174 169 168 164 162 163 160 157 154 149 148 147 148 147 142 138 133 134 134 136 136 135 134 132 133 132 130 128 128 128 124 124 124 124 128 128 127 124 124 122 122 120 121 120 120 
133 135 136 136 136 132 129 127 127 132 137 141 140 136 134 132 129 128 123 119 120 124 120 118 119 118 112 105 108 109 109 112 113 112 110 108 104 101 100 104 115 128 140 145 150 172 191 196 188 172 169 168 170 168 164 168 165 164 164 161 161 158 154 147 136 127 119 112 106 102 100 96 96 94 92 93 93 94 96 98 100 100 100 98 97 97 96 96 96 96 96 96 96 96 95 93 92 92 91 89 
135 136 137 139 137 133 127 124 124 130 134 137 137 136 134 132 132 128 122 118 116 116 115 111 111 109 107 104 103 102 100 102 104 101 97 93 88 83 82 83 87 93 99 100 114 155 192 199 191 154 126 124 127 126 124 126 128 128 126 125 125 125 124 121 115 107 100 97 94 90 88 88 88 88 87 86 86 85 86 87 88 88 88 88 88 86 86 85 84 84 84 83 82 80 80 79 77 76 76 76 
134 136 136 136 131 128 121 116 116 119 124 128 129 125 124 121 120 117 115 112 111 108 106 101 99 100 99 98 97 97 97 96 96 93 90 84 80 76 73 73 75 82 85 91 110 164 198 202 195 156 121 112 114 112 112 115 116 117 114 112 113 114 113 111 104 99 95 92 89 88 86 86 86 85 85 85 86 86 86 87 88 87 88 88 88 89 88 86 83 81 81 82 80 80 77 76 76 76 76 76 
124 124 124 123 120 114 108 105 104 108 112 115 116 116 115 116 113 112 111 108 107 108 108 104 100 100 100 99 97 97 97 97 96 92 88 84 78 73 72 72 75 80 84 89 109 166 198 200 196 162 123 114 115 113 112 112 115 116 115 114 113 112 110 107 104 98 93 92 88 87 85 84 85 84 84 84 85 86 86 87 88 89 91 92 92 91 91 89 88 87 85 85 84 83 79 71 52 72 71 52 
120 120 120 119 116 112 108 104 105 109 114 116 117 117 116 116 116 116 116 116 114 111 112 109 109 107 105 103 101 100 100 102 102 99 92 85 79 76 76 77 80 84 89 93 102 142 181 192 181 157 126 112 115 112 111 113 116 117 119 114 113 114 113 110 104 99 95 94 89 90 88 87 86 87 87 88 87 88 88 88 88 89 91 92 92 90 87 84 82 78 68 60 56 49 32 25 22 19 19 16 
126 120 128 128 127 124 115 110 108 111 114 117 119 118 117 116 116 115 114 113 111 109 107 104 105 107 106 105 103 102 100 100 100 96 89 84 78 76 76 78 81 84 89 92 96 123 167 187 172 146 124 123 117 115 114 114 116 116 115 116 116 116 116 115 93 70 96 96 57 81 78 89 96 96 92 99 78 100 92 93 80 78 74 60 56 30 28 28 32 26 23 16 16 16 14 14 14 12 13 14 
112 112 118 112 112 110 104 104 104 108 111 113 114 112 113 113 113 113 111 111 111 111 110 108 110 108 108 105 101 98 96 97 95 89 82 76 75 74 76 79 81 85 91 92 100 118 134 141 138 132 124 121 121 120 117 118 119 120 114 114 108 92 100 85 86 38 85 71 64 78 67 83 94 96 52 57 45 58 20 28 33 26 24 15 20 20 16 15 14 11 11 10 11 10 11 10 12 12 11 11 
111 110 112 111 109 106 104 102 102 107 112 112 114 112 112 111 112 112 112 112 112 111 106 107 106 104 101 100 97 94 95 94 91 90 86 81 77 76 80 82 87 87 88 90 97 112 125 135 132 124 120 122 119 116 116 120 120 120 119 120 79 31 40 44 88 83 88 71 53 68 50 48 40 45 31 28 22 23 24 36 44 50 39 27 27 33 40 40 32 24 24 20 18 18 18 14 17 16 16 16 
108 108 111 108 112 108 104 102 100 103 107 108 112 114 115 114 114 112 111 112 108 108 104 106 103 103 101 99 96 98 97 96 92 88 83 79 78 80 80 83 86 91 93 98 104 115 121 124 120 117 116 114 117 117 117 115 120 121 123 119 48 18 16 17 30 39 36 39 42 42 42 41 41 39 43 40 40 40 40 42 43 40 38 40 38 38 38 40 42 44 43 44 40 39 41 39 40 36 37 34 
108 104 102 106 108 105 104 101 104 111 117 116 115 116 116 114 115 112 112 109 106 104 103 101 100 100 99 97 98 97 96 96 93 90 88 86 82 77 80 85 86 91 94 98 105 117 120 128 121 119 112 111 113 116 118 120 121 115 95 60 25 16 16 20 39 40 42 37 40 44 43 44 45 43 42 44 42 40 41 41 40 40 40 40 41 38 40 40 40 40 41 41 43 41 36 34 38 39 40 42 
104 104 103 109 110 108 103 101 103 108 111 110 112 111 111 111 110 109 108 106 105 104 104 101 104 100 100 100 100 99 96 95 91 88 85 85 86 88 88 91 96 96 97 98 100 104 107 109 109 112 116 119 116 107 104 101 96 87 48 15 12 15 20 20 38 41 43 41 41 42 42 40 39 43 43 44 40 40 41 40 45 44 44 44 44 44 48 44 43 44 42 40 39 40 40 42 40 40 42 42 
105 105 106 108 107 104 102 105 104 105 106 107 106 108 107 107 108 109 110 108 105 105 105 106 105 103 99 97 91 92 93 94 93 96 93 96 92 89 92 92 93 95 92 99 103 115 126 120 112 102 100 98 96 94 84 98 86 49 17 18 20 16 20 29 43 40 43 39 41 46 44 42 32 30 36 30 24 31 37 38 33 35 36 40 42 35 37 52 42 43 41 41 42 42 41 40 42 42 41 46 
106 108 111 114 110 107 101 101 100 101 103 106 108 112 112 112 114 111 112 107 108 102 101 95 96 94 92 95 96 100 101 103 99 91 104 98 73 75 90 88 93 96 100 104 108 105 103 107 112 115 111 105 93 69 47 50 26 16 20 20 24 19 20 21 36 39 41 44 46 45 41 41 43 42 42 32 32 32 39 41 38 41 40 42 39 39 40 47 52 51 44 47 43 43 45 41 37 39 28 35 
106 107 100 95 96 96 95 98 99 99 104 107 106 108 110 109 110 108 108 106 101 95 98 99 97 97 101 103 100 91 96 92 76 51 76 87 47 83 76 89 92 81 69 100 105 102 105 111 112 103 76 75 72 60 53 31 20 18 29 31 22 22 26 28 35 32 32 34 36 41 44 35 28 25 25 22 25 34 34 37 42 39 40 38 39 40 40 42 50 54 51 44 40 44 48 44 38 41 40 39 
101 101 99 104 103 100 102 103 104 104 103 104 108 108 108 104 106 104 103 98 100 98 104 106 104 103 96 70 44 21 21 32 32 36 55 84 45 48 36 66 81 49 32 52 55 43 47 75 66 53 27 58 40 57 19 19 19 18 36 25 20 24 36 40 45 45 42 44 41 32 28 31 30 27 23 24 28 33 32 38 40 40 38 32 27 29 33 39 40 52 54 51 47 47 45 51 40 36 42 41 
101 104 104 112 109 106 101 95 97 99 103 101 104 107 104 100 98 99 96 102 103 101 108 108 105 106 66 11 4 8 8 6 13 20 42 72 28 29 29 37 31 27 24 26 24 30 29 29 32 29 33 28 31 29 24 24 18 34 23 16 37 30 28 39 39 42 44 47 47 45 47 40 36 26 17 16 16 20 21 31 31 33 37 32 32 34 32 42 32 27 44 52 49 44 40 50 44 39 41 36 
106 109 102 109 106 103 100 99 98 98 99 99 99 102 106 99 88 72 53 68 101 98 101 94 92 69 32 12 17 21 16 10 12 16 24 35 31 31 28 28 25 27 23 20 24 38 30 33 45 44 36 33 36 34 32 20 38 34 36 38 38 20 24 34 26 36 35 44 55 52 50 48 47 46 33 26 24 21 18 24 28 32 32 28 28 32 32 33 36 33 36 49 52 41 30 32 38 44 40 44 
87 88 99 104 96 97 99 100 104 102 101 105 106 108 104 49 20 23 28 39 65 68 85 59 37 30 16 20 25 36 30 26 27 35 36 34 36 36 40 40 32 34 32 23 28 37 48 47 47 35 41 50 50 46 50 42 35 46 37 44 51 32 17 18 24 20 21 25 35 51 47 38 40 38 34 30 30 28 35 36 32 26 33 32 25 18 16 27 30 20 28 36 45 49 44 50 41 50 39 42 
103 97 96 96 92 97 100 98 100 104 104 104 95 88 65 12 18 12 29 28 45 42 29 12 25 30 42 52 45 53 48 48 40 47 41 40 44 43 43 49 56 60 49 44 50 58 65 64 58 53 60 59 46 50 52 51 58 58 52 51 40 44 45 26 17 22 26 28 38 50 56 44 43 44 40 36 31 25 20 23 23 26 30 31 31 27 31 28 28 38 40 43 55 47 44 52 34 39 46 32 
70 62 72 83 96 95 97 97 100 103 104 100 48 34 31 10 27 33 39 41 49 42 37 44 48 48 49 52 56 52 54 50 51 51 48 43 37 44 43 47 51 51 47 56 57 62 68 61 62 64 76 67 56 49 52 52 64 60 68 62 49 52 50 46 39 31 33 28 40 51 52 64 53 37 29 17 16 20 28 31 26 27 20 16 20 22 33 36 35 40 48 44 44 55 37 53 40 57 52 42 
72 88 92 85 92 88 94 93 76 96 57 35 31 40 49 48 54 57 55 53 56 59 47 60 49 49 45 40 48 44 55 52 44 41 40 29 28 45 38 37 43 42 48 56 64 52 66 59 44 64 71 57 47 45 54 60 61 63 68 64 48 44 44 40 35 37 33 39 53 51 42 67 71 52 57 39 8 5 5 8 15 20 32 32 36 28 22 24 29 28 34 48 54 46 44 56 41 63 64 63 
67 72 76 58 70 72 65 63 22 24 16 23 35 56 53 43 57 50 58 47 54 55 66 49 54 46 50 52 46 54 56 52 38 29 30 45 40 45 45 48 47 64 56 61 52 48 41 35 50 64 60 40 52 56 71 60 59 54 49 49 52 50 47 45 42 44 34 31 33 50 51 53 72 69 60 44 32 28 27 29 15 11 23 32 33 24 22 16 16 16 29 21 37 49 44 52 42 53 45 52 
40 40 53 48 40 28 31 32 27 24 21 35 36 52 49 44 52 48 51 53 58 44 50 52 47 41 47 48 45 40 39 44 42 37 32 45 52 52 52 51 52 82 65 48 53 53 38 60 65 50 46 67 61 68 68 63 42 44 51 57 33 38 44 48 48 43 38 31 40 61 68 71 61 62 62 50 38 36 40 46 37 36 44 34 20 18 18 26 27 28 25 31 36 28 40 42 48 45 55 40 
48 41 47 48 30 31 34 35 30 30 40 49 51 48 40 47 58 62 56 59 55 48 56 55 41 35 32 28 40 23 32 36 43 36 41 50 36 49 52 46 56 65 64 51 72 71 68 56 53 46 56 74 74 66 66 63 52 41 49 53 43 37 44 44 46 47 37 59 68 68 44 71 61 60 52 58 56 56 58 63 42 47 39 40 42 44 44 35 24 24 26 29 32 40 49 56 56 59 73 64 
50 45 39 49 36 36 31 46 50 56 54 51 49 50 48 40 59 60 47 58 57 42 47 41 45 32 26 33 31 38 48 41 50 41 48 44 38 44 43 47 62 56 72 68 59 59 52 52 57 60 63 65 63 57 76 68 64 56 55 62 55 56 52 54 52 52 45 44 52 55 57 63 62 55 56 66 65 57 60 67 57 60 48 45 46 42 45 50 46 46 47 40 40 48 28 34 48 69 69 58 
