P2
# Created by GIMP version 2.10.28 PNM plug-in
100 56
255
128
127
123
121
118
115
113
112
110
109
107
108
106
106
104
104
104
105
108
110
111
111
111
110
112
112
112
111
111
112
111
111
113
115
119
124
130
130
131
132
138
155
168
170
172
159
153
152
167
167
173
165
170
175
161
154
147
144
140
138
136
134
134
134
139
146
161
195
210
209
201
195
179
167
156
151
149
142
142
143
144
141
133
131
134
135
137
137
132
130
133
136
139
148
157
159
168
162
157
140
132
128
123
122
120
117
114
112
109
109
107
107
107
107
104
104
104
103
106
106
107
107
108
108
110
110
110
109
110
111
111
111
113
115
121
126
132
135
135
136
142
156
172
176
181
166
163
152
158
156
165
170
173
174
159
142
139
141
139
136
135
134
135
137
139
152
174
204
211
205
207
201
180
165
157
154
152
148
147
148
148
141
141
143
142
138
139
138
137
137
138
142
144
153
158
168
160
144
137
129
135
130
125
122
121
117
115
114
112
110
108
108
107
107
105
103
102
102
103
104
104
104
105
105
106
106
106
108
108
109
110
113
113
116
123
129
137
144
147
148
153
165
175
178
180
174
162
148
152
150
151
163
163
157
144
139
141
142
140
139
137
138
139
139
146
164
202
212
208
206
206
199
183
171
167
163
160
158
154
148
143
142
145
146
141
141
141
141
140
140
143
146
146
146
149
150
140
130
126
128
136
135
130
126
123
120
118
115
113
112
109
108
107
107
106
104
102
102
103
103
103
103
103
103
103
103
105
107
108
108
109
113
114
118
124
133
145
154
162
156
168
170
166
168
156
147
147
147
156
158
146
140
144
140
142
142
143
152
148
154
146
143
144
152
154
175
208
215
213
212
205
190
183
186
181
170
159
159
154
148
143
141
142
139
139
145
143
146
147
149
152
146
146
147
143
134
128
127
129
127
136
135
133
131
128
123
119
118
116
114
112
110
108
108
107
105
104
103
102
102
102
102
103
103
103
104
108
109
108
108
109
112
114
119
128
141
154
155
160
167
172
166
158
156
150
147
150
157
158
159
150
137
138
145
149
152
162
158
149
152
152
150
157
167
169
177
205
213
216
208
203
193
197
202
189
150
141
140
138
137
135
133
135
135
137
138
140
144
146
145
143
140
140
138
133
129
131
134
134
128
141
144
143
139
136
131
126
122
120
119
116
114
112
109
107
106
105
104
104
102
101
101
102
103
105
106
107
108
107
107
108
112
117
124
135
154
162
161
161
167
171
176
156
151
150
153
158
165
160
164
165
148
149
155
157
156
160
158
149
145
147
159
169
170
179
186
201
218
219
210
199
197
187
183
158
139
135
131
129
128
125
125
129
132
133
135
136
138
140
139
137
134
134
133
130
132
139
137
135
130
163
160
159
153
154
150
142
136
132
129
125
121
117
114
112
111
108
107
106
104
103
102
103
102
102
102
103
106
105
106
107
111
118
125
137
151
160
161
166
168
178
173
164
164
160
164
168
159
157
172
181
166
153
152
153
156
151
148
140
141
152
172
175
193
194
193
222
230
221
219
181
156
148
146
143
136
135
129
124
120
119
121
125
128
132
133
135
136
134
135
133
134
134
132
129
130
132
129
128
125
183
180
178
176
178
175
168
158
152
148
143
137
127
121
117
115
113
110
109
107
106
104
103
101
100
99
101
103
103
104
107
109
115
125
138
141
149
154
165
177
172
170
172
173
172
176
182
164
159
174
194
179
157
148
145
151
143
138
136
136
144
157
180
193
194
201
207
182
160
168
147
142
137
137
131
133
131
123
118
116
116
118
123
128
130
134
135
133
132
134
137
136
135
131
128
127
126
123
122
118
201
199
195
196
200
198
191
181
170
163
153
151
140
134
131
126
123
119
116
111
109
107
104
103
102
100
101
103
103
104
106
109
115
125
137
140
144
148
162
177
177
182
185
185
186
187
175
160
157
162
169
166
155
145
140
147
146
135
134
135
137
156
171
182
190
195
166
149
146
146
138
134
131
130
126
128
128
121
116
115
116
118
121
123
127
129
126
130
131
130
134
132
128
125
125
123
122
118
114
113
210
210
208
209
211
211
212
203
185
170
165
164
158
156
151
147
142
137
128
121
116
113
110
108
106
103
103
103
105
107
108
110
115
125
136
138
139
145
154
176
191
197
192
188
180
175
166
159
153
156
161
160
150
143
140
140
137
131
130
140
146
155
169
174
203
187
149
143
140
137
134
131
130
129
128
127
125
120
117
116
115
116
119
119
123
123
120
125
128
130
129
129
126
125
122
119
117
114
110
108
203
211
214
215
215
216
216
212
196
184
182
183
185
189
180
177
172
163
156
139
131
125
120
116
111
108
108
108
109
110
111
114
120
126
132
134
137
140
146
159
186
190
178
163
161
161
159
155
152
155
167
162
150
146
142
137
133
129
133
145
157
160
169
181
168
156
143
139
134
132
130
129
129
128
127
126
124
121
119
117
117
119
119
121
126
126
123
126
128
129
128
128
127
124
119
114
112
109
106
105
155
160
175
210
215
216
210
197
192
188
182
188
209
214
195
193
193
184
182
160
152
148
142
132
124
119
117
116
116
117
120
121
125
128
130
132
134
135
141
151
168
162
155
151
147
147
153
151
150
153
162
162
156
152
146
140
135
134
137
144
146
144
147
147
144
141
138
134
128
127
126
124
125
124
124
123
122
119
118
116
117
117
118
120
123
124
123
124
128
127
127
126
125
122
118
113
109
104
103
102
139
141
149
171
203
199
166
154
148
146
146
148
151
160
170
189
209
210
206
196
181
170
164
158
146
140
136
134
132
129
129
132
137
136
134
133
131
134
141
147
152
151
151
146
144
142
144
144
142
144
155
158
155
151
145
140
137
139
142
141
140
142
142
139
138
136
133
128
125
122
122
121
122
124
124
122
121
119
116
115
114
113
116
118
120
121
122
127
131
132
129
126
122
119
114
113
110
107
105
102
138
144
154
174
201
194
171
156
143
137
137
139
147
160
179
194
210
217
223
226
212
195
183
187
184
173
165
162
157
148
144
148
152
148
145
138
135
136
139
143
147
148
146
140
141
140
142
144
143
142
147
150
153
151
145
141
140
140
141
137
138
137
136
135
133
131
129
126
124
122
123
123
124
125
124
121
119
118
115
113
112
111
111
113
116
119
126
132
131
130
127
124
120
117
114
112
111
110
108
103
166
166
170
183
171
170
182
165
144
146
156
159
177
201
224
224
225
227
223
229
233
229
213
208
218
215
203
199
187
170
164
167
163
152
150
144
141
141
141
141
142
143
142
140
142
142
142
143
138
137
144
150
152
149
146
145
142
139
139
135
133
132
131
132
130
129
128
127
127
127
126
123
122
119
121
120
118
117
113
111
111
109
110
112
116
122
125
125
125
125
124
121
116
114
113
110
109
109
107
103
178
189
179
184
164
156
153
151
159
164
177
172
190
219
226
228
226
221
224
221
234
231
229
225
208
218
228
226
230
210
206
201
181
155
146
144
142
142
142
142
142
141
140
141
140
141
139
139
138
140
141
144
146
141
141
142
141
138
137
136
132
131
131
131
131
131
128
127
123
123
122
120
118
119
118
117
115
113
114
114
112
112
114
116
121
125
124
123
123
122
119
115
114
110
109
105
105
105
104
101
197
215
202
182
169
157
146
148
165
164
177
188
171
196
208
219
229
218
206
212
215
206
179
165
149
161
191
191
187
181
197
234
208
159
144
137
132
137
141
141
142
144
140
134
138
140
139
137
137
136
136
138
141
135
133
135
136
134
135
135
134
131
130
130
130
130
125
120
119
117
117
121
120
118
117
117
118
118
118
117
116
113
114
118
124
124
121
122
119
119
117
114
110
106
103
103
102
101
100
97
217
245
224
213
187
164
146
149
172
185
183
179
167
205
192
180
175
190
196
199
196
175
154
148
149
154
192
189
173
165
171
190
187
165
147
140
130
128
128
129
133
135
134
130
131
135
136
136
134
134
133
135
136
130
126
126
127
128
127
128
130
130
130
131
128
127
123
120
118
115
116
121
120
118
118
120
121
120
119
116
114
113
115
119
124
123
120
117
116
116
116
112
106
102
100
100
98
97
96
94
198
216
228
223
208
179
143
147
197
222
219
204
184
197
183
186
164
164
185
200
176
161
149
149
150
150
156
160
159
157
157
164
164
164
153
145
133
125
122
122
124
127
129
128
128
128
129
130
126
123
123
125
128
125
123
121
119
117
117
120
123
125
126
128
128
128
124
122
118
115
115
117
117
117
120
121
120
119
119
119
117
116
118
120
124
117
113
112
114
113
111
108
104
101
97
96
96
95
96
95
184
202
224
230
218
186
139
144
197
248
248
230
217
205
174
180
161
152
158
169
156
146
141
137
136
137
131
134
141
146
149
151
156
157
150
145
139
132
127
125
124
125
129
128
124
124
123
124
122
119
120
121
122
123
123
121
117
114
120
123
123
123
124
131
129
127
128
128
121
119
118
117
115
118
120
118
118
120
122
123
121
119
117
124
121
115
112
112
113
112
110
107
104
103
101
100
98
98
98
99
224
233
214
218
227
196
149
147
161
209
209
194
195
180
168
161
152
150
148
146
142
135
133
132
129
130
124
134
134
133
138
142
145
146
142
139
140
140
138
134
132
129
129
126
123
121
120
123
122
119
120
120
118
118
119
119
116
115
123
124
128
137
139
130
124
127
130
134
125
120
124
121
119
119
117
116
116
119
120
119
118
116
116
120
120
116
115
114
112
110
109
108
104
102
99
96
93
93
93
94
225
239
248
240
231
214
190
165
164
188
217
217
198
184
176
170
167
171
170
159
139
127
129
140
143
132
124
122
125
128
128
131
135
139
136
126
125
128
132
133
132
131
130
128
126
125
127
128
128
127
126
123
118
116
119
122
120
121
126
129
139
161
172
163
136
130
134
140
141
135
136
135
130
124
115
113
113
112
112
114
113
113
113
113
114
114
114
109
108
106
107
106
101
100
96
94
94
94
95
97
207
199
213
218
220
236
227
200
188
191
224
231
232
201
195
183
181
184
170
155
140
131
122
126
138
132
130
127
123
124
124
125
130
136
133
125
119
116
113
113
117
122
122
124
125
124
124
126
128
123
124
126
126
126
128
130
132
135
136
141
157
185
224
221
167
157
151
175
158
140
132
128
126
122
117
113
112
112
112
112
114
112
111
111
112
112
112
110
108
110
110
109
107
106
105
103
102
102
103
104
217
213
200
201
200
207
190
179
177
182
188
209
212
210
224
227
223
196
193
194
165
136
129
128
128
128
128
126
118
116
113
113
117
119
120
121
118
112
113
112
113
111
110
113
114
113
110
111
115
116
117
119
126
129
134
143
157
158
157
161
173
203
242
241
203
180
165
160
143
131
123
115
114
113
115
117
116
115
116
116
115
112
111
110
109
109
111
111
111
111
109
107
107
105
102
101
99
98
98
98
225
232
216
220
203
207
193
176
175
186
200
220
231
225
239
235
228
213
181
198
212
219
183
156
141
139
134
129
127
125
122
120
123
123
123
124
123
118
112
110
113
116
117
118
115
115
116
120
121
119
116
121
128
131
144
172
201
216
209
207
219
232
224
220
194
179
166
150
140
131
122
113
108
107
109
112
116
117
117
117
116
116
115
114
113
112
112
111
111
109
108
108
108
107
106
105
103
103
102
103
192
207
223
222
223
230
212
189
184
197
211
229
222
218
225
222
236
243
221
199
209
232
248
242
229
229
205
184
187
174
171
176
192
188
172
175
166
151
136
132
149
182
198
195
152
135
157
173
179
160
164
203
221
212
219
247
253
253
253
254
253
250
235
219
212
197
175
159
147
134
124
118
118
122
119
117
116
116
116
122
129
132
128
124
120
117
117
116
113
114
118
125
125
118
118
119
122
124
125
123
158
166
169
174
174
178
179
174
170
174
180
174
171
179
187
182
181
171
172
183
190
191
191
191
192
193
192
190
188
182
185
189
199
208
208
202
192
192
190
193
198
206
215
224
225
239
243
243
245
246
244
245
249
250
250
250
251
250
250
252
251
251
242
228
217
211
200
183
169
158
152
152
154
146
137
134
140
143
145
148
150
149
148
145
142
146
150
151
148
150
150
149
149
149
148
148
149
148
147
146
126
128
128
131
135
137
136
137
139
142
144
141
141
144
148
148
148
150
153
156
159
161
164
168
176
175
175
176
175
175
186
193
201
207
200
193
192
189
191
192
191
192
195
198
205
210
212
209
207
211
210
210
211
215
218
218
219
218
216
218
218
218
214
210
207
202
197
191
184
179
175
170
167
163
158
159
162
164
165
163
167
172
169
167
174
169
170
174
179
174
173
176
169
164
162
162
163
163
163
157
108
110
112
114
117
117
118
119
121
123
124
125
126
128
131
134
138
143
148
150
153
159
165
169
172
178
184
193
196
202
209
215
222
225
231
237
244
244
244
247
248
250
251
251
252
252
250
228
205
202
205
196
194
192
191
190
190
190
190
190
190
189
189
190
190
191
188
181
178
174
171
169
165
162
158
157
156
156
155
153
156
155
151
160
165
163
164
166
167
169
170
167
164
162
161
161
160
161
159
157
105
107
109
112
115
117
118
119
119
120
120
121
122
123
125
129
131
136
139
145
152
159
166
165
166
173
182
194
206
216
221
220
221
225
230
233
235
235
233
235
237
239
243
243
244
245
240
223
191
185
186
177
172
170
172
168
170
168
168
168
169
169
169
168
168
168
166
166
164
163
162
158
158
158
157
156
155
153
152
150
148
146
146
149
149
149
150
153
156
158
157
158
158
158
157
157
156
156
155
154
146
150
152
155
156
157
153
149
152
159
168
174
174
175
178
182
185
185
182
180
180
184
186
185
182
181
177
177
177
178
180
183
187
189
189
189
187
184
180
178
182
190
197
201
206
213
218
220
217
193
158
170
160
207
222
218
212
210
205
203
204
200
197
193
187
185
184
185
184
178
173
167
168
168
171
170
169
168
166
167
165
163
161
160
161
156
156
155
156
160
160
159
156
155
153
153
151
152
151
150
167
169
171
171
170
166
162
159
159
165
172
177
175
170
168
165
162
161
154
149
150
155
151
148
149
148
140
132
136
137
137
141
142
140
138
135
130
127
126
130
144
160
176
182
188
215
239
245
236
216
212
211
213
210
206
211
207
206
205
202
202
198
193
184
171
159
149
140
133
128
125
121
120
118
116
117
117
118
121
123
125
125
125
123
122
122
120
120
120
120
121
121
121
120
119
117
116
115
114
112
169
171
172
174
172
167
159
155
156
163
168
172
172
170
168
165
165
161
153
148
145
146
144
139
139
137
134
130
129
128
126
128
131
127
122
117
111
104
103
104
109
117
124
126
143
194
241
249
239
193
158
155
159
158
155
158
160
160
158
157
157
157
156
152
144
134
126
122
118
113
111
111
111
110
109
108
108
107
108
109
110
110
110
110
110
108
108
107
105
105
105
104
103
101
100
99
97
96
96
96
168
171
171
170
164
161
152
146
145
149
156
160
162
157
155
152
150
147
144
141
139
136
133
127
124
125
124
123
122
122
122
121
121
117
113
106
100
95
92
92
94
103
107
114
138
206
248
253
244
195
152
141
143
140
140
144
145
147
143
140
142
143
142
139
131
124
119
116
112
110
108
108
108
107
107
107
108
108
108
109
110
109
110
111
111
112
111
108
104
102
102
103
101
100
97
96
96
95
96
96
155
155
155
154
151
143
135
132
131
135
141
144
145
145
144
145
142
140
139
136
134
136
136
130
125
125
125
124
122
122
122
122
121
116
111
105
98
92
90
90
94
101
105
112
137
208
248
251
245
203
154
143
144
142
141
140
144
146
144
143
142
140
138
134
130
123
117
115
111
109
107
106
107
106
105
106
107
108
108
109
110
112
114
115
115
114
114
112
110
109
107
107
105
104
99
89
66
91
89
66
150
151
151
149
145
140
135
131
132
137
143
146
147
147
145
146
145
145
146
146
143
139
141
137
137
134
132
129
127
126
126
128
128
124
115
107
99
96
95
97
100
106
112
117
128
178
227
240
227
197
158
141
144
141
139
142
145
147
149
143
142
143
142
138
131
124
119
118
112
113
111
109
108
109
109
110
109
110
110
110
110
112
114
115
116
113
109
105
103
98
86
76
71
62
40
32
28
24
24
20
158
151
160
160
159
155
144
138
136
139
143
147
149
148
147
146
145
144
143
142
139
137
134
131
132
134
133
132
129
128
126
126
126
120
112
106
98
96
96
98
102
105
112
116
121
154
209
234
216
183
155
154
147
144
143
143
145
145
144
145
146
146
146
144
117
88
120
120
72
102
98
112
120
120
116
124
98
125
116
117
101
98
93
76
71
38
36
35
40
33
29
21
20
20
18
18
18
15
17
18
141
141
148
141
141
138
131
130
131
135
139
142
143
141
142
142
142
142
139
139
139
139
138
136
138
136
135
132
127
123
120
122
119
112
103
96
94
93
95
99
102
107
114
116
126
148
168
177
173
165
155
152
152
151
147
148
149
151
143
143
135
115
125
107
108
48
107
89
81
98
84
104
118
120
65
72
57
73
25
35
42
33
30
19
26
26
21
19
18
14
14
13
14
13
14
13
15
16
14
14
139
138
141
139
137
133
130
128
128
134
140
140
143
141
140
139
140
141
141
140
141
139
133
134
133
130
127
126
122
118
119
118
114
113
108
102
97
96
100
103
109
109
110
113
122
140
157
169
165
155
151
153
149
145
146
150
150
150
149
151
99
39
50
55
110
104
110
89
67
86
63
60
50
57
39
35
28
29
30
45
55
63
49
34
34
42
51
51
40
31
30
25
23
23
23
18
22
21
21
20
136
136
139
136
140
135
130
128
125
129
134
136
140
143
144
143
143
141
139
140
135
136
130
133
129
129
127
124
120
123
122
120
116
111
104
99
98
100
101
104
108
114
117
123
131
144
152
155
151
147
145
143
147
147
147
144
151
152
154
149
61
23
20
22
38
49
46
49
53
53
53
52
52
49
54
51
50
50
50
53
54
50
48
51
48
48
48
50
53
55
54
55
51
49
52
49
51
46
47
43
135
130
128
133
136
132
130
127
130
139
147
146
144
145
145
143
144
141
140
137
133
131
129
127
125
126
124
122
123
122
121
120
117
113
111
108
103
97
101
107
108
114
118
123
132
147
150
160
152
149
140
139
142
145
148
150
152
144
119
75
32
21
21
25
49
50
53
47
51
55
54
56
57
54
53
55
53
51
52
52
51
51
50
50
52
48
50
51
50
50
52
52
54
52
45
43
48
49
51
53
130
130
129
137
138
135
129
127
129
135
139
138
140
139
139
139
138
137
135
133
132
131
131
127
130
126
125
126
125
124
121
119
114
111
107
107
108
110
111
114
120
120
122
123
125
131
134
137
137
140
146
149
145
134
130
127
121
109
61
19
15
19
25
26
48
52
54
52
52
53
53
50
49
54
54
56
50
50
52
50
57
55
56
55
55
56
60
55
54
56
53
51
49
50
50
53
51
51
53
53
132
132
133
136
134
130
128
132
130
132
133
134
133
136
134
134
135
137
138
136
132
132
132
133
132
129
124
122
114
115
117
118
117
120
117
120
116
112
116
115
117
119
116
124
129
144
158
150
141
128
126
123
121
118
106
123
108
62
22
23
25
21
26
37
54
51
54
49
52
58
55
53
41
38
45
38
30
39
47
48
42
44
45
50
53
44
47
65
53
54
52
52
53
53
52
51
53
53
52
58
133
136
139
143
138
134
127
127
125
127
129
133
135
141
141
141
143
139
140
134
136
128
127
119
120
118
116
119
121
126
127
129
124
114
130
123
92
94
113
111
117
121
125
130
135
132
129
134
140
144
139
132
117
87
59
63
33
21
25
26
30
24
25
27
45
49
52
55
58
57
52
52
54
53
53
40
40
40
49
52
48
52
50
53
49
49
50
59
65
64
55
59
54
54
57
52
47
49
36
44
133
134
125
119
120
121
119
123
124
124
131
134
133
136
138
137
138
136
135
133
127
119
123
124
122
122
127
129
126
114
121
116
96
64
95
109
59
104
96
112
115
102
87
125
132
128
132
139
141
129
95
94
91
75
67
39
26
23
37
39
28
28
33
35
44
40
41
43
46
52
55
44
35
32
32
28
32
43
43
47
53
49
51
48
49
50
50
53
63
68
64
56
51
56
61
55
48
52
51
49
127
127
124
130
129
126
128
129
130
130
129
131
136
136
135
131
133
130
129
123
126
123
131
133
131
129
120
88
55
27
27
41
40
46
69
105
57
60
46
83
102
62
40
66
69
54
59
94
83
67
34
73
51
72
24
24
24
23
46
32
25
31
46
51
57
57
53
55
52
40
35
39
38
34
29
31
36
42
40
48
51
50
48
40
34
37
42
49
50
65
68
64
59
59
57
64
50
46
53
52
127
131
131
140
137
133
127
119
122
124
129
127
131
134
131
126
123
124
120
128
129
127
135
136
132
133
83
14
6
10
11
8
17
26
53
91
35
37
37
47
39
34
30
33
31
38
37
37
41
37
42
36
39
37
30
31
23
43
29
20
47
38
36
49
49
53
55
59
59
57
59
51
45
33
22
21
20
25
27
39
39
42
47
41
40
43
41
53
41
34
56
66
62
56
51
63
55
49
52
46
133
137
128
137
133
129
126
124
123
123
124
124
124
128
133
124
110
90
67
86
127
123
127
118
116
87
41
15
22
27
21
13
15
21
30
44
39
39
36
36
32
34
29
26
30
48
38
42
57
56
45
42
45
43
40
25
48
43
45
48
48
25
30
43
33
46
44
55
69
65
63
60
59
58
42
33
31
27
23
31
35
40
40
35
36
41
40
42
46
42
46
62
65
52
38
41
48
55
51
55
109
110
124
130
120
122
124
126
130
128
127
132
133
136
131
62
26
29
35
49
82
85
107
74
47
38
21
25
32
45
38
33
34
44
45
43
45
45
50
51
41
43
40
29
35
47
61
59
59
44
52
63
63
58
63
53
44
58
47
55
64
41
22
23
30
26
27
32
44
64
59
48
51
48
43
38
38
35
44
45
41
33
42
40
32
23
21
34
38
25
35
45
57
62
55
63
52
63
49
53
129
122
120
120
115
122
125
123
125
131
131
130
119
111
82
15
23
16
37
35
57
53
37
16
32
38
53
66
57
67
60
61
50
59
52
50
55
54
54
62
70
76
62
55
63
73
82
81
73
67
76
74
58
63
65
64
73
73
65
64
50
55
57
33
22
28
33
36
48
63
71
56
54
56
51
45
39
32
25
29
29
33
38
39
39
34
39
35
35
48
51
54
69
59
56
65
43
49
58
41
88
78
91
104
121
119
122
122
126
129
130
125
60
43
39
13
34
42
49
52
62
53
47
56
60
61
62
66
71
66
68
63
64
64
60
54
47
56
54
59
64
64
59
71
72
78
85
77
78
80
95
84
71
62
66
65
80
75
85
78
62
65
63
58
49
39
42
35
50
64
66
80
67
47
37
22
20
26
36
39
33
34
25
21
25
28
42
46
44
50
61
56
55
69
47
67
51
72
65
53
90
110
116
107
115
111
118
117
96
121
72
44
39
50
62
61
68
72
69
67
71
74
59
75
62
62
57
51
60
56
69
65
55
52
50
37
36
57
48
47
54
53
61
70
81
66
83
74
55
80
89
72
59
57
68
76
77
79
86
81
61
56
55
51
44
47
42
49
67
64
53
84
89
66
72
49
10
7
7
10
19
25
41
40
45
35
28
30
37
36
43
60
68
58
56
70
52
79
81
79
84
90
95
73
88
90
82
79
28
31
21
29
44
70
67
54
72
63
73
59
68
69
83
62
68
58
63
65
58
68
71
66
48
37
38
57
51
57
57
61
59
80
71
77
66
60
52
44
63
81
75
51
65
71
89
76
74
68
62
62
66
63
59
57
53
56
43
39
42
63
64
67
91
87
76
55
40
35
34
37
19
14
29
40
42
30
28
21
20
21
37
27
47
62
56
65
53
67
57
66
51
51
67
61
50
36
39
40
34
30
27
44
45
65
62
56
65
61
64
67
73
56
63
65
59
52
59
61
57
51
49
56
53
47
40
57
66
66
65
64
66
103
82
61
67
67
48
75
82
63
58
84
77
86
85
79
53
55
64
72
42
48
56
60
61
54
48
39
50
77
86
89
77
78
78
63
48
46
51
58
47
46
56
43
25
23
23
33
34
35
32
39
46
36
50
53
61
57
69
51
60
52
59
60
38
39
43
44
38
38
51
62
64
61
51
59
73
78
71
74
69
61
70
69
52
44
41
36
50
29
41
45
54
45
52
63
46
62
66
58
70
82
81
64
91
89
86
70
67
58
71
93
93
83
83
79
65
52
62
67
54
47
55
55
58
59
47
74
86
85
55
89
77
76
66
73
71
71
73
79
53
59
49
51
53
55
56
44
31
30
33
37
40
51
62
70
71
74
92
81
63
57
49
62
46
45
39
58
63
70
68
64
62
63
60
50
74
76
59
73
72
53
59
52
57
41
33
42
39
48
60
52
63
52
61
55
48
55
54
59
78
71
90
85
74
74
66
66
72
76
79
82
79
72
95
85
80
70
69
78
69
70
66
68
66
65
57
55
66
69
72
79
78
69
71
83
82
72
76
84
72
75
61
57
58
53
57
63
58
58
59
51
51
60
35
43
61
87
87
73
